<?xml version="1.0" encoding="utf-8"?>
<!-- Generator: Adobe Illustrator 21.1.0, SVG Export Plug-In . SVG Version: 6.00 Build 0)  -->
<svg version="1.1" id="Layer_1" xmlns="http://www.w3.org/2000/svg" xmlns:xlink="http://www.w3.org/1999/xlink" x="0px" y="0px"
	 viewBox="0 0 490.4 116.9" style="enable-background:new 0 0 490.4 116.9;" xml:space="preserve">
<style type="text/css">
	.st0{fill:#FFFFFF;}
	.st1{fill:#004B8D;}
	.st2{fill:#B30838;}
	.st3{fill:#004684;}
</style>
<g>
	<g>
		<g>
			<g>
				<path class="st0" d="M53.3,96.7l-1.3-0.6c-10.1-4.7-18.5-11.6-24.2-20c-5-7.4-7.7-15.7-7.7-23.4V20.4h66.2v32.3
					c0,7.7-2.7,16-7.7,23.4c-5.7,8.5-14,15.4-24.1,20L53.3,96.7z"/>
			</g>
			<path class="st1" d="M53.3,94.8l-0.5-0.2c-9.8-4.5-18-11.2-23.4-19.4C24.6,68,22,60.1,22,52.7V22.1h62.7v30.6
				c0,7.4-2.6,15.3-7.4,22.4C71.8,83.3,63.7,90,53.9,94.6L53.3,94.8z"/>
			<path id="Bar_25_" class="st2" d="M83.4,23.2H23.3v19.5h60.1V23.2z"/>
			<path class="st1" d="M37.8,37.5v1.7H24.5v-1.6c-0.4-0.5-0.6-1-0.6-1.4c0-0.8,0.6-1.4,0.6-1.4V31c-0.3-0.5-0.4-1-0.4-1.4
				c0-1.3,1.2-1.9,1.2-1.9h0.9c0.9-0.9,2-1.1,2.9-1.1c1.2,0,2.1,0.4,2.1,0.4c0.8-0.3,1.6-0.5,2.2-0.5c1.9,0,2.8,1.1,2.8,1.1H37
				c2.2,1.3,0.8,3.3,0.8,3.3v3.7C39.1,36.4,37.8,37.5,37.8,37.5z M66.2,32.1c-0.2-0.3-0.3-0.6-0.3-0.9c0-1.2,1.2-2.5,1.4-2.8
				c0,0,0,0,0,0c0-0.2-0.8-0.6-1.7-0.6c-1.2,0-2.7,0.7-2.6,3.9c0,0-2.6,0.3-2.6,2.8c0,0.6,0.1,1.2,0.4,2c0,0.1,0.1,0.1,0.1,0.1
				c0.3,0,1.1-1.1,1.7-1.5c0.4-0.2,0.7-0.4,1.1-0.4c0.5,0,0.9,0.4,0.9,0.8c0,0.8-1,2.3-2.7,2.3c-0.8,0-1.6-0.4-2.3-1.4
				c0,0,0.4-0.6,0.4-1.4c0-0.5-0.2-1.1-0.8-1.6c0,0,0.1-0.3,0.1-0.7c0-0.5-0.2-1.1-1-1.2c0,0,0.1-2-1.6-2c0,0-0.2-1-1.2-1
				c-0.1,0-0.3,0-0.5,0c0,0-0.2-1.2-1.4-1.2c-0.2,0-0.4,0-0.7,0.1c0,0-0.4-1-1.5-1c-0.4,0-0.8,0.1-1.3,0.5c0,0-0.8-1.6-2.5-0.3
				c0,0-0.5-0.5-1.3-0.5c-0.6,0-1.4,0.3-2.3,1.2c0,0-0.1-0.4-0.3-0.4c-0.1,0-0.1,0-0.2,0.2c-0.2,0.5-0.1,0.7-0.3,1.2
				c-0.1,0.2-3.3,4-3.3,6.9c0,0.6,0.1,1.2,0.5,1.7c0.1,0.1,0.1,0.2,0.1,0.3c0,0.1-0.1,0.1-0.2,0.2c-0.2,0.1-0.8,0.6-0.8,1.1
				c0,0.1,0,0.1,0,0.2c0.4,1.2,1,0.8,1.9,1.5c0.3,0.2,0.7,0.4,1.3,0.4c1.3,0,3.2-0.6,5.2-2.9c0.8-0.9,1.7-1.3,2.5-1.3
				c3,0,6.2,4.4,11,4.2c4.1-0.1,5.9-3.3,5.9-5.3C67.3,34.8,67.4,33.9,66.2,32.1z M82.2,34.8v-3.7c0,0,0.4-0.7,0.4-1.5
				c0-0.6-0.3-1.3-1.2-1.9h-0.8c0,0-0.9-1.1-2.8-1.1c-0.6,0-1.4,0.1-2.2,0.5c0,0-0.9-0.4-2.1-0.4c-0.9,0-2,0.2-2.9,1.1h-0.9
				c0,0-1.2,0.6-1.2,1.9c0,0.4,0.1,0.9,0.4,1.4v3.7c0,0-0.6,0.6-0.6,1.4c0,0.4,0.1,0.9,0.6,1.4v1.6h13.3v-1.7c0,0,0.6-0.5,0.6-1.3
				C82.8,35.8,82.7,35.3,82.2,34.8z"/>
			<path class="st0" d="M47,36.2l0.9,0.6c-1.1,1.8-3.6,3-4.9,3c-0.6,0-1.4-0.1-1.4-0.3c0,0,0-0.1,0.1-0.1c2.3-0.9,3.3-1.6,3.6-2.1
				c0.2-0.2,0.4-0.5,0.4-0.7c0-0.2-0.1-0.3-0.3-0.3c-0.2,0-0.3,0.1-0.5,0.3c-0.7,1.1-2.7,1.9-3.1,2c-0.2,0.1-0.5,0.1-0.8,0.1
				c-0.4,0-0.7-0.1-0.9-0.4c0-0.1,0-0.1,0-0.2c0-0.5,1.1-0.5,1.1-1.2c0-0.8-0.7-1-0.7-2.3c0-2.4,2.8-5.8,3.2-6.2
				c1,0.7,1.3,1.6,1.3,2.4c0,1.3-0.8,2.5-0.8,2.5l0.2,0.1c0.6-0.6,1.6-1.5,2.3-1.5c0.7,0,0.9,0.6,0.9,0.8c0,0.2-0.1,0.4-0.1,0.4
				s0.1,0,0.3,0c0.5,0,0.8,0.4,0.8,0.9C48.7,35.3,47,36.2,47,36.2z M43.3,35.1c-0.3,0.1-0.4,0.3-0.4,0.6c0,0.3,0.2,0.6,0.2,0.7
				c0,0,0,0,0.1,0c0.3,0,1.1-0.8,1.3-1c0,0,0,0,0,0C44.4,35.2,43.3,35.1,43.3,35.1z M65.2,31.3C65.2,31.3,65.2,31.3,65.2,31.3
				c0,1.3,1.5,1.8,1.5,3.8c0,2-1.9,4.7-5.2,4.7c-6,0-6.9-4.2-10.8-4.2c-1.5,0-2.5,0.7-2.5,0.7L47.9,36c0.8-0.7,1.1-1.3,1.1-1.8
				c0-1.1-1.1-2-1.1-2c0.3-0.3,0.6-0.4,0.9-0.4c0.6,0,0.7,0.9,1.4,0.9c0.4,0,0.7-0.3,1-0.3c0.3,0,0.5,0.3,0.8,0.8c0.5,0.8,1.8,0,2,1
				c0.2,0.9,0.3,0.7,0.8,0.7c0.5,0.1,0.6,1,0.6,1l0.6-0.2c0-0.3-0.1-0.6-0.4-1.1c-0.3-0.4-1,0.1-1.1-0.9c-0.1-0.7-0.6-0.8-0.9-0.8
				c-0.2,0-0.4,0-0.5,0c-0.3,0-0.4-0.4-0.5-0.7c-0.1-0.4-0.4-0.7-0.8-0.7c-0.4,0-0.8,0.4-1.3,0.4c-0.6,0-0.6-1.1-1.7-1.1
				c-0.8,0-1.5,0.9-1.5,0.9c-0.2,0-0.4-0.1-0.5-0.1c-0.5,0-0.9,0.1-0.9,0.1c0.1-0.3,0.1-0.6,0.1-0.9c0-0.9-0.2-1.4-0.3-1.6
				c0.4-0.1,1.6-0.4,3.2-0.4c1.3,0,3,0.2,4.7,0.9c4.3,1.7,5.2,8.5,8.3,8.5c3.1,0,3.5-2.3,3.5-2.9s-0.3-1.5-1.6-1.5
				c-1.4,0-2.3,1.7-2.5,1.7c0,0,0,0,0,0c-0.1-0.4-0.1-0.7-0.1-1c0-2.7,2.8-2.4,2.8-2.4c0-0.3,0-0.6,0-0.8c0-2.5,1.2-3,2-3
				c0.4,0,0.7,0.2,0.7,0.3c0,0,0,0,0,0.1C66.1,29,65.2,30,65.2,31.3z M75.2,35.9v-8.3c0,0-0.8-0.3-1.8-0.3c-0.8,0-1.7,0.2-2.4,0.9
				v7.8c0,0,1.1-0.3,2.5-0.3C74.1,35.8,74.7,35.8,75.2,35.9z M37.1,30.8c0,0,1.2-1.4-0.3-2.5h-0.5V37h-4.1l-1.1,0.4l-1-0.4h-4.3
				v-8.6h-0.5c0,0-0.7,0.5-0.7,1.3c0,0.3,0.1,0.7,0.5,1.2V35c0,0-0.6,0.5-0.6,1.1c0,0.3,0.1,0.7,0.6,1.1v1.3h12v-1.3
				c0,0,1.3-0.9,0-2.2V30.8z M45.1,28.7c0.4-0.1,1.8-0.5,3.8-0.5c3.2,0,7.6,1.1,9.6,6.5c0.1,0.3,0.2,0.4,0.3,0.4
				c0.1,0,0.2-0.3,0.2-0.6c0-0.4-0.1-0.8-0.7-1c0,0,0.1-0.2,0.1-0.5c0-0.5-0.2-1.1-1.1-1.3c0,0,0-0.1,0-0.3c0-0.5-0.2-1.5-1.3-1.5
				c-0.1,0-0.2,0-0.3,0c0,0,0.1-0.9-0.9-0.9c-0.1,0-0.3,0-0.5,0.1c0,0-0.1-1.2-1.2-1.2c-0.3,0-0.6,0.1-1.1,0.3c0,0-0.3-0.9-1.1-0.9
				c-0.3,0-0.7,0.1-1.2,0.4c0,0-0.5-0.8-1.2-0.8c-0.4,0-0.8,0.2-1.3,0.8c0,0-0.4-0.8-1.3-0.8c-0.4,0-0.9,0.2-1.5,0.8
				C44.4,27.9,44.9,28.3,45.1,28.7z M35.7,36.1v-7.8c-0.7-0.7-1.6-0.9-2.4-0.9c-1,0-1.8,0.3-1.8,0.3v8.3c0.5-0.1,1.1-0.2,1.6-0.2
				C34.5,35.8,35.7,36.1,35.7,36.1z M30.8,35.9v-8.3c0,0-0.8-0.3-1.8-0.3c-0.8,0-1.7,0.2-2.4,0.9v7.8c0,0,1.2-0.3,2.7-0.3
				C29.8,35.8,30.3,35.8,30.8,35.9z M81.6,30.8c0,0,0.5-0.6,0.5-1.2c0-0.4-0.2-0.8-0.8-1.2h-0.5V37h-4.1l-1.1,0.4l-1-0.4h-4.3v-8.6
				h-0.5c0,0-0.7,0.4-0.7,1.3c0,0.3,0.1,0.7,0.5,1.2V35c0,0-0.6,0.5-0.6,1.1c0,0.3,0.1,0.7,0.6,1.1v1.3h12v-1.3c0,0,0.6-0.4,0.6-1.1
				c0-0.3-0.2-0.7-0.6-1.1V30.8z M80.1,36.1v-7.8c-0.7-0.7-1.6-0.9-2.4-0.9c-1,0-1.8,0.3-1.8,0.3v8.3c0.6-0.1,1.2-0.2,1.7-0.2
				C79,35.8,80.1,36.1,80.1,36.1z M53.3,62c-2.5,0-4.4-2-4.4-4.4s2-4.4,4.4-4.4c2.5,0,4.4,2,4.4,4.4S55.8,62,53.3,62z M67.9,65.5
				c-2.5,0-4.4,2-4.4,4.4s2,4.4,4.4,4.4c2.5,0,4.4-2,4.4-4.4S70.3,65.5,67.9,65.5z M34.4,70c0,2.5,2,4.4,4.4,4.4
				c2.5,0,4.4-2,4.4-4.4s-2-4.4-4.4-4.4C36.3,65.5,34.4,67.5,34.4,70z M69.5,82.5L53.3,67L37.2,82.5c6.2,6,12.9,9.4,16.1,10.9
				C56.5,91.9,63.2,88.5,69.5,82.5z M79.3,69.2c2.4-4.5,4.2-10.9,4.2-16.4c0-3,0-9,0-9H23.3c0,0,0,6,0,9c0,5.6,1.8,11.9,4.2,16.4
				l25.9-24.4L79.3,69.2z"/>
		</g>
	</g>
</g>
<path class="st1" d="M337.7,42.4h-1c-0.9-3.9-3.6-6.4-7.2-6.4c-4.2,0-7.2,3.6-7.2,8.9c0,5.9,3.7,10.8,8.1,10.8c2.6,0,5.8-1.4,8-4.5
	v1.6c-2.3,3.2-5.6,4.7-9.5,4.7c-6.4,0-10.8-4.4-10.8-10.8c0-6.6,5-11.9,11.1-11.9c3.2,0,5,1.2,6.1,1.2c0.5,0,1.1-0.4,1.5-1.2h1V42.4
	z M111.2,50.3c0,4.3,1,5.5,3.9,5.5v1h-12.5v-1c2.4,0,3.9-0.8,3.9-5.4V28.7c0-4.2-1-5.5-3.9-5.5v-1h12.7c9.6,0,13.5,5.1,13.5,9.9
	c0,5.8-4.4,9-12.2,9c-1.5,0-2.8-0.1-5.3-0.4V50.3z M111.2,39c1.6,0.5,2.5,0.6,4.3,0.6c5.2,0,8.4-2.8,8.4-7.5c0-3.7-2.1-8.7-8.4-8.7
	h-4.3V39z M132.3,43.8c-0.1,9.6,5.6,12.1,8.5,12.1c3,0,4.5-1,7.6-4.5v1.6c-2.6,3.3-5.1,4.6-8.8,4.6c-6.7,0-11.6-4.7-11.6-11.1
	c0-6.5,4.7-11.6,10.8-11.6c5,0,9.6,4,9.3,9H132.3z M144,42.7c0.2-4.7-3-6.7-5.8-6.7c-3.6,0-5.7,2.7-5.9,6.7H144z M172.4,52.2
	c0,2.8,0.6,3.6,3.6,3.6v1h-11.5v-1c2.9,0,3.7-0.7,3.7-2.7V41.9c0-3.5-2.5-4.9-4.8-4.9c-2.1,0-4,1.3-6.1,4.2v10.5
	c0,3.3,0.4,4.1,3.6,4.1v1h-11.3v-1c2.8,0,3.6-0.2,3.6-4.1V39.6c0-2.6-0.7-3.2-3.6-3.2v-1l6.7-0.7h1v4.3c2.5-2.9,5-4.3,7.8-4.3
	c3.6,0,7.3,2.5,7.3,7.7V52.2z M199.7,52.2c0,2.8,0.6,3.6,3.6,3.6v1h-11.5v-1c2.9,0,3.7-0.7,3.7-2.7V41.9c0-3.5-2.5-4.9-4.8-4.9
	c-2.1,0-4,1.3-6.1,4.2v10.5c0,3.3,0.4,4.1,3.6,4.1v1h-11.3v-1c2.8,0,3.6-0.2,3.6-4.1V39.6c0-2.6-0.7-3.2-3.6-3.2v-1l6.7-0.7h1v4.3
	c2.5-2.9,5-4.3,7.8-4.3c3.6,0,7.3,2.5,7.3,7.7V52.2z M250.9,23.2c-3,0.1-4.1,2.1-3.9,5.4l1.8,21.4c0.4,4.2,1.1,5.6,4.3,5.9v1h-12.5
	v-1c2.8-0.5,3.8-1.8,3.6-5.2l-1.7-22.4h-0.1l-11.9,28.7h-0.9l-11.6-28.7h-0.1l-1.9,21.4c-0.3,3.5,1,5.6,4.5,6.2v1h-10.8v-1
	c3.5-0.5,4.1-2.5,4.4-6.4l2.1-23.9c-1.3-1.5-2.5-2.1-4.5-2.4v-1h8.8l11.1,27.3l11.3-27.3h8.2V23.2z M258.6,43.8
	c-0.1,9.6,5.6,12.1,8.5,12.1c3,0,4.5-1,7.6-4.5v1.6c-2.6,3.3-5.1,4.6-8.8,4.6c-6.7,0-11.6-4.7-11.6-11.1c0-6.5,4.7-11.6,10.8-11.6
	c5,0,9.6,4,9.3,9H258.6z M270.3,42.7c0.2-4.7-3-6.7-5.8-6.7c-3.6,0-5.7,2.7-5.9,6.7H270.3z M299.2,52.7c0,2.4,0.8,3.2,3.6,3.2v1
	h-12.5c-9.1,0-12.5-6.1-12.5-11.1c0-6.1,4.5-10.9,10.1-10.9c2.3,0,4.5,0.8,7.2,2.6V24.2c0-3.1-0.7-3.7-2.8-3.7H291v-1l7.1-0.7h1
	V52.7z M295.1,39.7c-1.7-2.3-4.1-3.6-6.2-3.6c-3.9,0-6.5,3.5-6.5,8.7c0,5.2,2.4,11.1,9.4,11.1c2.4,0,3.4-1,3.4-3.3V39.7z
	 M312.9,52.8c0,2.1,0.5,3,3.6,3v1h-11.8v-1c3.3,0,4.1-0.4,4.1-3V39.7c0-3-0.9-3.2-4.1-3.2v-1l7.2-0.7h1V52.8z M313.5,26.3
	c0,1.5-1.2,2.7-2.6,2.7c-1.5,0-2.7-1.2-2.7-2.7c0-1.5,1.2-2.6,2.7-2.6C312.4,23.7,313.5,24.9,313.5,26.3z M348,52.8
	c0,2.1,0.5,3,3.6,3v1h-11.8v-1c3.3,0,4.1-0.4,4.1-3V39.7c0-3-0.9-3.2-4.1-3.2v-1l7.1-0.7h1V52.8z M348.6,26.3c0,1.5-1.2,2.7-2.6,2.7
	c-1.5,0-2.7-1.2-2.7-2.7c0-1.5,1.2-2.6,2.7-2.6C347.5,23.7,348.6,24.9,348.6,26.3z M375.6,52.2c0,2.8,0.6,3.6,3.6,3.6v1h-11.5v-1
	c2.9,0,3.7-0.7,3.7-2.7V41.9c0-3.5-2.5-4.9-4.8-4.9c-2.1,0-4,1.3-6.1,4.2v10.5c0,3.3,0.4,4.1,3.6,4.1v1h-11.3v-1
	c2.8,0,3.6-0.2,3.6-4.1V39.6c0-2.6-0.7-3.2-3.6-3.2v-1l6.7-0.7h1v4.3c2.5-2.9,5-4.3,7.8-4.3c3.6,0,7.3,2.5,7.3,7.7V52.2z
	 M384.8,43.8c-0.1,9.6,5.6,12.1,8.5,12.1c3,0,4.5-1,7.6-4.5v1.6c-2.6,3.3-5.1,4.6-8.8,4.6c-6.7,0-11.6-4.7-11.6-11.1
	c0-6.5,4.7-11.6,10.8-11.6c5,0,9.6,4,9.3,9H384.8z M396.5,42.7c0.2-4.7-3-6.7-5.8-6.7c-3.6,0-5.7,2.7-5.9,6.7H396.5z"/>
<g>
	<path class="st3" d="M120.7,83.6c0,6.7-4,10.5-9.5,10.5c-5.6,0-9.1-4.3-9.1-10.1c0-6.1,3.8-10.4,9.4-10.4
		C117.3,73.6,120.7,78,120.7,83.6z M105.8,83.9c0,4,2,7.3,5.5,7.3c3.5,0,5.5-3.2,5.5-7.4c0-3.7-1.9-7.3-5.5-7.3
		C107.8,76.5,105.8,79.8,105.8,83.9z"/>
	<path class="st3" d="M122.6,93.8c0.1-1,0.1-2.6,0.1-4V72.8h3.6v8.5h0.1c0.9-1.4,2.4-2.3,4.6-2.3c3.5,0,6,2.9,6,7.3
		c0,5.2-3.3,7.7-6.5,7.7c-1.9,0-3.5-0.7-4.5-2.5h-0.1l-0.2,2.2H122.6z M126.4,87.8c0,0.3,0,0.6,0.1,0.9c0.4,1.4,1.7,2.5,3.2,2.5
		c2.3,0,3.7-1.8,3.7-4.7c0-2.5-1.2-4.6-3.6-4.6c-1.5,0-2.8,1.1-3.2,2.7c-0.1,0.3-0.1,0.6-0.1,0.9V87.8z"/>
	<path class="st3" d="M139,90.4c0.8,0.5,2.4,1,3.7,1c1.6,0,2.3-0.6,2.3-1.6c0-1-0.6-1.5-2.4-2.1c-2.8-1-4-2.5-4-4.2
		c0-2.5,2.1-4.5,5.4-4.5c1.6,0,3,0.4,3.8,0.9l-0.7,2.6c-0.6-0.4-1.8-0.8-3-0.8c-1.3,0-2,0.6-2,1.5c0,0.9,0.7,1.4,2.5,2
		c2.6,0.9,3.8,2.3,3.8,4.4c0,2.6-2,4.5-5.8,4.5c-1.7,0-3.3-0.4-4.4-1L139,90.4z"/>
	<path class="st3" d="M154.7,75.3v4.1h3.4v2.7h-3.4v6.3c0,1.7,0.5,2.7,1.9,2.7c0.6,0,1.1-0.1,1.4-0.2l0.1,2.8
		c-0.5,0.2-1.5,0.4-2.6,0.4c-1.3,0-2.4-0.4-3.1-1.2c-0.8-0.8-1.1-2.1-1.1-4v-6.8h-2.1v-2.7h2.1v-3.2L154.7,75.3z"/>
	<path class="st3" d="M162.4,87.6c0.1,2.6,2.1,3.7,4.4,3.7c1.7,0,2.9-0.2,4-0.6l0.5,2.5c-1.2,0.5-2.9,0.9-5,0.9
		c-4.7,0-7.4-2.9-7.4-7.3c0-4,2.4-7.7,7-7.7c4.7,0,6.2,3.8,6.2,7c0,0.7-0.1,1.2-0.1,1.5H162.4z M168.7,85.1c0-1.3-0.6-3.5-3-3.5
		c-2.2,0-3.2,2-3.3,3.5H168.7z"/>
	<path class="st3" d="M178.3,75.3v4.1h3.4v2.7h-3.4v6.3c0,1.7,0.5,2.7,1.9,2.7c0.6,0,1.1-0.1,1.4-0.2l0.1,2.8
		c-0.5,0.2-1.5,0.4-2.6,0.4c-1.3,0-2.4-0.4-3.1-1.2c-0.8-0.8-1.1-2.1-1.1-4v-6.8h-2.1v-2.7h2.1v-3.2L178.3,75.3z"/>
	<path class="st3" d="M183.6,84c0-1.9,0-3.3-0.1-4.6h3.2l0.1,2.7h0.1c0.7-2,2.4-3.1,3.9-3.1c0.4,0,0.6,0,0.9,0.1v3.4
		c-0.3-0.1-0.6-0.1-1.1-0.1c-1.7,0-2.9,1.1-3.2,2.7c-0.1,0.3-0.1,0.7-0.1,1.1v7.4h-3.6V84z"/>
	<path class="st3" d="M197.1,75.4c0,1.1-0.8,1.9-2.1,1.9c-1.2,0-2-0.9-2-1.9c0-1.1,0.8-2,2-2C196.3,73.4,197.1,74.3,197.1,75.4z
		 M193.2,93.8V79.4h3.7v14.4H193.2z"/>
	<path class="st3" d="M210.4,93.3c-0.8,0.4-2.3,0.7-4.1,0.7c-4.5,0-7.4-2.9-7.4-7.3c0-4.3,2.9-7.7,8-7.7c1.3,0,2.7,0.3,3.5,0.7
		l-0.6,2.7c-0.6-0.3-1.4-0.6-2.7-0.6c-2.8,0-4.4,2-4.4,4.7c0,2.9,1.9,4.6,4.4,4.6c1.3,0,2.2-0.3,2.9-0.6L210.4,93.3z"/>
	<path class="st3" d="M212.1,90.4c0.8,0.5,2.4,1,3.7,1c1.6,0,2.3-0.6,2.3-1.6c0-1-0.6-1.5-2.4-2.1c-2.8-1-4-2.5-4-4.2
		c0-2.5,2.1-4.5,5.4-4.5c1.6,0,3,0.4,3.8,0.9l-0.7,2.6c-0.6-0.4-1.8-0.8-3-0.8c-1.3,0-2,0.6-2,1.5c0,0.9,0.7,1.4,2.5,2
		c2.6,0.9,3.8,2.3,3.8,4.4c0,2.6-2,4.5-5.8,4.5c-1.7,0-3.3-0.4-4.4-1L212.1,90.4z"/>
	<path class="st3" d="M237,93.8l-0.2-1.6h-0.1c-0.9,1.1-2.4,1.9-4.2,1.9c-2.9,0-4.5-2.1-4.5-4.3c0-3.6,3.2-5.5,8.5-5.4v-0.2
		c0-0.9-0.4-2.5-2.9-2.5c-1.4,0-2.9,0.4-3.9,1.1l-0.7-2.4c1.1-0.6,2.9-1.3,5.2-1.3c4.6,0,5.9,2.9,5.9,6v5.2c0,1.3,0.1,2.6,0.2,3.4
		H237z M236.5,86.7c-2.6-0.1-5,0.5-5,2.7c0,1.4,0.9,2.1,2.1,2.1c1.4,0,2.5-0.9,2.8-2c0.1-0.3,0.1-0.6,0.1-0.8V86.7z"/>
	<path class="st3" d="M243,83.7c0-1.7,0-3-0.1-4.3h3.2l0.2,2.2h0.1c0.6-1.1,2.2-2.5,4.6-2.5c2.5,0,5.1,1.6,5.1,6.2v8.5h-3.6v-8.1
		c0-2.1-0.8-3.6-2.7-3.6c-1.4,0-2.4,1-2.8,2.1c-0.1,0.3-0.1,0.8-0.1,1.2v8.4H243V83.7z"/>
	<path class="st3" d="M272.2,72.8v16.9c0,1.5,0.1,3.1,0.1,4h-3.2l-0.1-2.3h-0.1c-0.9,1.6-2.6,2.6-4.7,2.6c-3.4,0-6.1-2.9-6.1-7.3
		c0-4.8,3-7.7,6.4-7.7c2,0,3.4,0.8,4,1.9h0.1v-8.1H272.2z M268.6,85.4c0-0.3,0-0.6-0.1-0.9c-0.3-1.4-1.5-2.6-3.1-2.6
		c-2.3,0-3.6,2.1-3.6,4.7c0,2.6,1.3,4.5,3.6,4.5c1.5,0,2.8-1,3.1-2.6c0.1-0.3,0.1-0.7,0.1-1.1V85.4z"/>
	<path class="st3" d="M296.5,92.8c-1.3,0.5-3.7,1.1-6.4,1.1c-3.4,0-5.9-0.9-7.8-2.7c-1.8-1.7-2.8-4.3-2.8-7.3
		c0-6.3,4.5-10.3,11.1-10.3c2.4,0,4.4,0.5,5.3,0.9l-0.8,2.9c-1.1-0.5-2.4-0.9-4.5-0.9c-4.2,0-7.2,2.5-7.2,7.1c0,4.5,2.8,7.2,6.9,7.2
		c1.3,0,2.3-0.2,2.7-0.4v-5h-3.5v-2.9h7V92.8z"/>
	<path class="st3" d="M301.3,79.4l2.6,7.7c0.3,0.9,0.6,2,0.8,2.8h0.1c0.2-0.8,0.5-1.9,0.8-2.8l2.2-7.7h3.9l-3.6,9.8
		c-2,5.4-3.3,7.8-5,9.2c-1.4,1.3-2.9,1.7-3.8,1.9l-0.8-3.1c0.6-0.1,1.4-0.5,2.1-1c0.7-0.4,1.5-1.3,2-2.3c0.1-0.3,0.2-0.5,0.2-0.6
		c0-0.1,0-0.4-0.2-0.7l-5.2-13.2H301.3z"/>
	<path class="st3" d="M312.9,83.7c0-1.7,0-3-0.1-4.3h3.2l0.2,2.2h0.1c0.6-1.1,2.2-2.5,4.6-2.5c2.5,0,5.1,1.6,5.1,6.2v8.5h-3.6v-8.1
		c0-2.1-0.8-3.6-2.7-3.6c-1.4,0-2.4,1-2.8,2.1c-0.1,0.3-0.1,0.8-0.1,1.2v8.4h-3.7V83.7z"/>
	<path class="st3" d="M331.5,87.6c0.1,2.6,2.1,3.7,4.4,3.7c1.7,0,2.9-0.2,4-0.6l0.5,2.5c-1.2,0.5-2.9,0.9-5,0.9
		c-4.7,0-7.4-2.9-7.4-7.3c0-4,2.4-7.7,7-7.7c4.7,0,6.2,3.8,6.2,7c0,0.7-0.1,1.2-0.1,1.5H331.5z M337.8,85.1c0-1.3-0.6-3.5-3-3.5
		c-2.2,0-3.2,2-3.3,3.5H337.8z"/>
	<path class="st3" d="M369.3,86.5c0,5.3-3.7,7.6-7.4,7.6c-4.1,0-7.2-2.8-7.2-7.4c0-4.7,3.1-7.6,7.4-7.6
		C366.5,79.1,369.3,82.1,369.3,86.5z M358.5,86.6c0,2.8,1.4,4.9,3.6,4.9c2.1,0,3.5-2,3.5-4.9c0-2.2-1-4.8-3.5-4.8
		C359.6,81.8,358.5,84.2,358.5,86.6z"/>
	<path class="st3" d="M371.4,72.9h3.7v20.9h-3.7V72.9z"/>
	<path class="st3" d="M391.8,86.5c0,5.3-3.7,7.6-7.4,7.6c-4.1,0-7.2-2.8-7.2-7.4c0-4.7,3.1-7.6,7.4-7.6
		C388.9,79.1,391.8,82.1,391.8,86.5z M381,86.6c0,2.8,1.4,4.9,3.6,4.9c2.1,0,3.5-2,3.5-4.9c0-2.2-1-4.8-3.5-4.8
		C382,81.8,381,84.2,381,86.6z"/>
	<path class="st3" d="M407,79.4c-0.1,1-0.1,2.2-0.1,4.1v8.1c0,3-0.6,5.2-2.1,6.5c-1.5,1.3-3.6,1.7-5.5,1.7c-1.8,0-3.8-0.4-5-1.1
		l0.8-2.7c0.9,0.5,2.4,1.1,4.2,1.1c2.4,0,4.1-1.2,4.1-4.3v-1.2h-0.1c-0.8,1.3-2.3,2.1-4.2,2.1c-3.6,0-6.1-2.9-6.1-7
		c0-4.7,3.1-7.6,6.5-7.6c2.2,0,3.5,1.1,4.2,2.2h0.1l0.1-1.9H407z M403.2,85.2c0-0.3,0-0.7-0.1-1c-0.4-1.3-1.4-2.3-2.9-2.3
		c-2,0-3.5,1.8-3.5,4.7c0,2.4,1.2,4.4,3.5,4.4c1.4,0,2.5-0.9,2.9-2.2c0.1-0.4,0.1-0.9,0.1-1.3V85.2z"/>
	<path class="st3" d="M412.2,79.4l2.6,7.7c0.3,0.9,0.6,2,0.8,2.8h0.1c0.2-0.8,0.5-1.9,0.8-2.8l2.2-7.7h3.9l-3.6,9.8
		c-2,5.4-3.3,7.8-5,9.2c-1.4,1.3-2.9,1.7-3.8,1.9l-0.8-3.1c0.6-0.1,1.4-0.5,2.1-1c0.7-0.4,1.5-1.3,2-2.3c0.1-0.3,0.2-0.5,0.2-0.6
		c0-0.1,0-0.4-0.2-0.7l-5.2-13.2H412.2z"/>
	<text transform="matrix(1 0 0 1 211.75 -98.5415)" style="font-family:'MyriadPro-Regular'; font-size:12px;">Lorem ipsum</text>
	<path class="st3" d="M354.3,93.3c-0.8,0.4-2.3,0.7-4.1,0.7c-4.5,0-7.4-2.9-7.4-7.3c0-4.3,2.9-7.7,8-7.7c1.3,0,2.7,0.3,3.5,0.7
		l-0.6,2.7c-0.6-0.3-1.4-0.6-2.7-0.6c-2.8,0-4.4,2-4.4,4.7c0,2.9,1.9,4.6,4.4,4.6c1.3,0,2.2-0.3,2.9-0.6L354.3,93.3z"/>
</g>
</svg>
